<svg width="33" height="29" viewBox="0 0 33 29" fill="none" xmlns="http://www.w3.org/2000/svg">
<path d="M21.8043 24.5867L18.118 20.0238L14.0476 28.9981C13.7034 28.5772 13.3907 28.1941 13.0811 27.8111C10.5718 24.7088 8.0649 21.6023 5.56047 18.4916C5.32752 18.2012 5.16277 18.1875 4.85636 18.359C3.51635 19.1062 2.1627 19.8249 0.817439 20.5542C0.697762 20.6345 0.568347 20.6993 0.43233 20.7468C0.28874 20.7641 0.14359 20.7641 0 20.7468C0.0881448 20.6415 0.154254 20.4931 0.266533 20.4311C1.73561 19.5892 3.21204 18.7684 4.67902 17.9276C4.82908 17.8341 4.9487 17.6988 5.02321 17.5382C6.92042 13.3534 8.81379 9.16723 10.7033 4.97964C10.7621 4.85021 10.8282 4.72287 10.9226 4.52924L14.5953 9.06796C15.9595 6.05513 17.2984 3.09491 18.7003 0C18.742 0.101626 18.7922 0.199499 18.8504 0.292549C21.6529 3.76946 24.4546 7.24742 27.2556 10.7264C27.4571 10.9769 27.6072 11.019 27.8999 10.8832C29.1004 10.3276 30.3134 9.80038 31.5233 9.26369C31.6245 9.20575 31.7368 9.16989 31.8528 9.15846C31.9068 9.16104 31.9595 9.17605 32.0069 9.20233C32.0542 9.22861 32.0948 9.26544 32.1256 9.30999C32.1561 9.38471 32.0868 9.52678 32.0207 9.60254C31.9395 9.6684 31.8461 9.7174 31.7458 9.74671C30.5149 10.3013 29.2882 10.8632 28.051 11.401C27.9323 11.4505 27.8246 11.5234 27.7345 11.6154C27.6444 11.7074 27.5736 11.8166 27.5264 11.9366C25.6753 16.0421 23.8215 20.1462 21.9649 24.2489C21.9197 24.3363 21.8736 24.4299 21.8043 24.5867ZM6.49229 17.4224L13.7076 26.3536L17.778 17.3561L21.4654 21.9043L25.6984 12.5491C24.9912 12.8164 24.3647 13.1415 23.7267 13.4425C23.5903 13.5067 23.329 13.5477 23.2692 13.4814C23.1737 13.3699 23.1538 13.1468 23.1831 12.9847C23.2493 12.6175 23.3647 12.2586 23.4738 11.8419C23.3671 11.8669 23.262 11.8982 23.159 11.9356C21.3426 12.7774 19.5209 13.6119 17.7119 14.4717C15.9028 15.3314 14.1315 16.2112 12.3308 17.0594C12.1661 17.1373 11.8376 17.1236 11.739 17.0141C11.6404 16.9047 11.653 16.5932 11.7243 16.409C11.8628 16.0576 12.08 15.7376 12.2584 15.402C12.4001 15.1336 12.5313 14.86 12.6677 14.5896L12.569 14.4843L6.49229 17.4224ZM12.2269 16.5164C12.3093 16.4957 12.3906 16.4708 12.4704 16.4417C13.193 16.1007 13.9153 15.7587 14.6373 15.4156C17.5817 14.0125 20.5273 12.6094 23.4738 11.2063C23.6228 11.1368 23.8673 11.0958 23.9785 11.1726C24.0719 11.2358 24.0782 11.4988 24.0468 11.6599C23.9733 12.0397 23.8547 12.4112 23.732 12.8827L26.1801 11.6346L19.012 2.75501C17.6479 5.76995 16.3089 8.71437 14.9426 11.7262L11.2521 7.16744L6.99597 16.589C8.09464 16.1428 9.1146 15.6419 10.144 15.1473C11.0538 14.7127 11.9678 14.2844 12.887 13.8708C13.0272 13.8191 13.1812 13.8191 13.3214 13.8708C13.3697 13.8876 13.3865 14.1118 13.3529 14.2223C13.2792 14.4736 13.1829 14.7177 13.0654 14.9516C12.8051 15.4556 12.5281 15.9544 12.2269 16.5185V16.5164Z" fill="#2AA98B"/>
</svg>
