<svg width="10" height="10" viewBox="0 0 10 10" fill="none" xmlns="http://www.w3.org/2000/svg">
<path d="M9.295 0.705031C8.90564 0.31567 8.27436 0.31567 7.885 0.705031L5 3.59003L2.115 0.705031C1.72564 0.31567 1.09436 0.31567 0.705 0.70503C0.315639 1.09439 0.315639 1.72567 0.705 2.11503L3.59 5.00003L0.705 7.88503C0.315639 8.27439 0.315639 8.90567 0.705 9.29503C1.09436 9.68439 1.72564 9.68439 2.115 9.29503L5 6.41003L7.885 9.29503C8.27436 9.68439 8.90564 9.68439 9.295 9.29503C9.68436 8.90567 9.68436 8.27439 9.295 7.88503L6.41 5.00003L9.295 2.11503C9.68436 1.72567 9.68436 1.09439 9.295 0.705031Z" fill="white"/>
</svg>
