<svg width="64" height="64" viewBox="0 0 64 64" fill="none" xmlns="http://www.w3.org/2000/svg">
<mask id="mask0_1820_19146" style="mask-type:alpha" maskUnits="userSpaceOnUse" x="0" y="0" width="64" height="64">
<rect width="64" height="64" fill="#D9D9D9"/>
</mask>
<g mask="url(#mask0_1820_19146)">
<path d="M57.9299 31.7168C57.2988 31.7168 56.7824 32.2141 56.7824 32.8218C56.7824 34.2251 56.0021 35.4737 54.7973 36.1476C54.04 30.8107 50.1272 25.9931 44.2294 23.054C42.3361 27.9378 37.4365 31.3521 31.837 31.3521C25.8588 31.3521 20.8674 27.5732 19.1922 22.402C18.9053 22.5236 18.6184 22.6562 18.3316 22.7888L16.3235 19.5844C16.1629 19.3413 15.9105 19.1535 15.6121 19.0872C15.3138 19.0209 14.9925 19.0651 14.7401 19.2199C11.8829 20.8994 10.7355 24.2806 11.9059 27.2087V27.2197C10.3798 28.7224 9.19792 30.413 8.37176 32.2362L5.83591 33.1864C4.72289 33.6174 4 34.6339 4 35.783V41.3078C4 42.5122 4.78026 43.584 5.91623 43.9596L8.97991 45.0425C10.5863 47.9154 13.1107 50.4125 16.3235 52.3019L16.7252 56.8321C16.8514 58.0697 17.93 59.3956 19.3528 59.3956H24.0458C25.4572 59.3956 26.5243 58.0918 26.6505 56.8542L26.7423 55.683C28.2455 55.904 29.6454 56.0034 31.0223 56.0034C31.9517 56.0034 33.0992 55.9924 34.2925 55.8929L34.3728 56.8432C34.4991 58.0807 35.5662 59.3956 36.9775 59.3956H41.6706C43.1278 59.3956 44.195 58.0476 44.2753 56.8211L44.608 52.7549C50.9075 49.4953 54.717 44.2358 54.9006 38.5122C57.3676 37.6834 59.0773 35.4183 59.0773 32.8217C59.0773 32.2141 58.5609 31.7168 57.9299 31.7168ZM16.0137 34.9654C14.545 34.9654 13.3517 33.8162 13.3517 32.4129C13.3517 31.0096 14.545 29.8604 16.0137 29.8604C17.471 29.8604 18.6529 31.0096 18.6529 32.4129C18.6529 33.8162 17.471 34.9654 16.0137 34.9654Z" fill="#22876F"/>
<path d="M31.8355 27.1024C35.9778 27.1024 39.8332 24.782 41.6577 21.1909C42.392 19.7545 42.7707 18.1965 42.7707 16.5612C42.7707 10.7493 37.8596 6.02002 31.8355 6.02002C25.8 6.02002 20.8889 10.7492 20.8889 16.5612C20.8889 18.0088 21.1873 19.39 21.761 20.6827C23.4822 24.5831 27.4408 27.1024 31.8355 27.1024ZM31.8355 17.3899C30.1373 17.3899 28.7604 16.064 28.7604 14.4397C28.7604 13.1027 29.7013 11.9867 30.975 11.6221V11.1801C30.975 10.7271 31.3536 10.3514 31.8355 10.3514C32.306 10.3514 32.6961 10.7271 32.6961 11.1801V11.6221C33.9583 11.9757 34.8992 13.1027 34.8992 14.4397C34.8992 14.8927 34.5091 15.2684 34.0386 15.2684C33.5567 15.2684 33.1781 14.8927 33.1781 14.4397C33.1781 13.7215 32.5699 13.1469 31.8355 13.1469C31.0897 13.1469 30.4816 13.7215 30.4816 14.4397C30.4816 15.1469 31.0897 15.7325 31.8355 15.7325C33.5223 15.7325 34.8992 17.0584 34.8992 18.6827C34.8992 20.0197 33.9583 21.1357 32.6961 21.5003V21.9423C32.6961 22.3953 32.306 22.771 31.8355 22.771C31.3536 22.771 30.975 22.3953 30.975 21.9423V21.5003C29.7013 21.1357 28.7604 20.0197 28.7604 18.6827C28.7604 18.2186 29.1505 17.854 29.621 17.854C30.1029 17.854 30.4816 18.2186 30.4816 18.6827C30.4816 19.3899 31.0897 19.9755 31.8355 19.9755C32.5699 19.9755 33.1781 19.3899 33.1781 18.6827C33.1781 17.9645 32.5699 17.3899 31.8355 17.3899Z" fill="#22876F"/>
<ellipse cx="17.2397" cy="29.9235" rx="4.7663" ry="4.58977" fill="white"/>
<ellipse cx="32.0682" cy="15.6443" rx="7.94384" ry="7.64962" fill="white"/>
<path d="M57.9299 28.6573C57.2988 28.6573 56.7824 29.1545 56.7824 29.7622C56.7824 31.1655 56.0021 32.4141 54.7973 33.088C54.04 27.7511 50.1272 22.9335 44.2294 19.9944C42.3361 24.8782 37.4365 28.2925 31.837 28.2925C25.8588 28.2925 20.8674 24.5136 19.1922 19.3425C18.9053 19.464 18.6184 19.5966 18.3316 19.7292L16.3235 16.5249C16.1629 16.2818 15.9105 16.0939 15.6121 16.0276C15.3138 15.9613 14.9925 16.0055 14.7401 16.1603C11.8829 17.8399 10.7355 21.221 11.9059 24.1491V24.1601C10.3798 25.6629 9.19792 27.3534 8.37176 29.1766L5.83591 30.1269C4.72289 30.5578 4 31.5743 4 32.7235V38.2482C4 39.4526 4.78026 40.5244 5.91623 40.9001L8.97991 41.9829C10.5863 44.8558 13.1107 47.353 16.3235 49.2423L16.7252 53.7726C16.8514 55.0101 17.93 56.3361 19.3528 56.3361H24.0458C25.4572 56.3361 26.5243 55.0322 26.6505 53.7947L26.7423 52.6234C28.2455 52.8444 29.6454 52.9439 31.0223 52.9439C31.9517 52.9439 33.0992 52.9328 34.2925 52.8334L34.3728 53.7836C34.4991 55.0212 35.5662 56.3361 36.9775 56.3361H41.6706C43.1278 56.3361 44.195 54.988 44.2753 53.7615L44.608 49.6953C50.9075 46.4357 54.717 41.1762 54.9006 35.4526C57.3676 34.6239 59.0773 32.3587 59.0773 29.7621C59.0773 29.1545 58.5609 28.6573 57.9299 28.6573ZM16.0137 31.9058C14.545 31.9058 13.3517 30.7567 13.3517 29.3533C13.3517 27.95 14.545 26.8009 16.0137 26.8009C17.471 26.8009 18.6529 27.95 18.6529 29.3533C18.6529 30.7567 17.471 31.9058 16.0137 31.9058Z" fill="#2AA98B"/>
<path d="M31.8355 26.0824C35.9778 26.0824 39.8332 23.762 41.6577 20.1709C42.392 18.7345 42.7707 17.1765 42.7707 15.5412C42.7707 9.72928 37.8596 5 31.8355 5C25.8 5 20.8889 9.72917 20.8889 15.5412C20.8889 16.9888 21.1873 18.37 21.761 19.6626C23.4822 23.5631 27.4408 26.0824 31.8355 26.0824ZM31.8355 16.3699C30.1373 16.3699 28.7604 15.044 28.7604 13.4197C28.7604 12.0827 29.7013 10.9667 30.975 10.6021V10.1601C30.975 9.70707 31.3536 9.33139 31.8355 9.33139C32.306 9.33139 32.6961 9.70707 32.6961 10.1601V10.6021C33.9583 10.9557 34.8992 12.0827 34.8992 13.4197C34.8992 13.8727 34.5091 14.2484 34.0386 14.2484C33.5567 14.2484 33.1781 13.8727 33.1781 13.4197C33.1781 12.7015 32.5699 12.1269 31.8355 12.1269C31.0897 12.1269 30.4816 12.7015 30.4816 13.4197C30.4816 14.1269 31.0897 14.7125 31.8355 14.7125C33.5223 14.7125 34.8992 16.0384 34.8992 17.6627C34.8992 18.9997 33.9583 20.1157 32.6961 20.4803V20.9223C32.6961 21.3753 32.306 21.751 31.8355 21.751C31.3536 21.751 30.975 21.3753 30.975 20.9223V20.4803C29.7013 20.1157 28.7604 18.9997 28.7604 17.6627C28.7604 17.1986 29.1505 16.834 29.621 16.834C30.1029 16.834 30.4816 17.1986 30.4816 17.6627C30.4816 18.3698 31.0897 18.9555 31.8355 18.9555C32.5699 18.9555 33.1781 18.3698 33.1781 17.6627C33.1781 16.9445 32.5699 16.3699 31.8355 16.3699Z" fill="#2AA98B"/>
</g>
</svg>
