<svg width="64" height="64" viewBox="0 0 64 64" fill="none" xmlns="http://www.w3.org/2000/svg">
<mask id="mask0_1820_19170" style="mask-type:alpha" maskUnits="userSpaceOnUse" x="0" y="0" width="64" height="64">
<rect width="64" height="64" fill="#D9D9D9"/>
</mask>
<g mask="url(#mask0_1820_19170)">
<path d="M36.032 20.0052H41.3595V25.3327C41.3595 25.876 41.7194 26.2359 42.2627 26.2359C42.806 26.2359 43.1659 25.876 43.1659 25.3327V19.1019C43.1659 18.5586 42.806 18.1987 42.2627 18.1987H36.032C35.4886 18.1987 35.1288 18.5586 35.1288 19.1019C35.1288 19.6453 35.4886 20.0052 36.032 20.0052Z" fill="#2AA98B"/>
<path d="M22.576 26.2401C23.1193 26.2401 23.4792 25.8803 23.4792 25.3369V20.0094L28.8067 20.0059C29.35 20.0059 29.7099 19.646 29.7099 19.1027C29.7099 18.5593 29.35 18.1995 28.8067 18.1995H22.576C22.0326 18.1995 21.6728 18.5593 21.6728 19.1027V25.3334C21.6728 25.7885 22.1244 26.2401 22.576 26.2401Z" fill="#2AA98B"/>
<path d="M42.2624 31.5671C41.719 31.5671 41.3592 31.927 41.3592 32.4704V37.7979L36.0316 37.8014C35.4883 37.8014 35.1284 38.1613 35.1284 38.7046C35.1284 39.2479 35.4883 39.6078 36.0316 39.6078H42.2624C42.8057 39.6078 43.1656 39.2479 43.1656 38.7046V32.4739C43.1656 32.0187 42.714 31.5671 42.2624 31.5671Z" fill="#2AA98B"/>
<path d="M28.8063 37.8023H23.4787V32.4747C23.4787 31.9314 23.1189 31.5715 22.5755 31.5715C22.0322 31.5715 21.6723 31.9314 21.6723 32.4747V38.7055C21.6723 39.2488 22.0322 39.6087 22.5755 39.6087H28.8063C29.3496 39.6087 29.7095 39.2488 29.7095 38.7055C29.7095 38.1621 29.3496 37.8023 28.8063 37.8023Z" fill="#2AA98B"/>
<path d="M20.7695 29.8531H43.9812C44.5245 29.8531 44.8844 29.4932 44.8844 28.9498C44.8844 28.4065 44.5245 28.0466 43.9812 28.0466H20.7695C20.2262 28.0466 19.8663 28.4065 19.8663 28.9498C19.8663 29.4897 20.3179 29.8531 20.7695 29.8531Z" fill="#2AA98B"/>
<path d="M45.1977 3H19.8023C16.0823 3 13 5.99859 13 9.61765V56.3824C13 60.0014 16.0823 63 19.8023 63H45.1977C48.9177 63 52 60.0014 52 56.3824V9.61765C52 5.99859 48.9177 3 45.1977 3ZM32.5 58.4982C30.5054 58.4982 28.8721 56.9093 28.8721 54.9688C28.8721 53.0284 30.5054 51.4394 32.5 51.4394C34.4946 51.4394 36.1279 53.0284 36.1279 54.9688C36.1279 56.9127 34.4946 58.4982 32.5 58.4982ZM49.2791 48.8824H15.7209V10.5H49.2791V48.8824Z" fill="#2AA98B"/>
</g>
</svg>
