<svg width="64" height="64" viewBox="0 0 64 64" fill="none" xmlns="http://www.w3.org/2000/svg">
<mask id="mask0_1820_19172" style="mask-type:alpha" maskUnits="userSpaceOnUse" x="0" y="0" width="64" height="64">
<rect width="64" height="64" fill="#D9D9D9"/>
</mask>
<g mask="url(#mask0_1820_19172)">
<path fill-rule="evenodd" clip-rule="evenodd" d="M40.9819 62.3H47.6675C47.8636 62.3 48.0219 62.4564 48.0219 62.65C48.0219 62.8437 47.8636 63.0001 47.6675 63.0001H16.8894C16.6933 63.0001 16.535 62.8437 16.535 62.65C16.535 62.4564 16.6933 62.3 16.8894 62.3H23.575L25.8094 54.0754H38.7452L40.9795 62.3H40.9819ZM57.0819 12C59.5525 12 61.5556 13.9786 61.5556 16.419V48.6232C61.5556 51.0635 59.5525 53.0422 57.0819 53.0422H7.4737C5.00313 53.0422 3 51.0635 3 48.6232V16.419C3 13.9786 5.00313 12 7.4737 12H57.0819ZM26.6454 32.0247C23.9209 32.0247 21.7092 34.2093 21.7092 36.9005C21.7092 39.5916 23.9209 41.7763 26.6454 41.7763C29.3699 41.7763 31.5816 39.5916 31.5816 36.9005C31.5816 34.2093 29.3699 32.0247 26.6454 32.0247ZM38.1612 32.2133C35.4367 32.2133 33.225 34.398 33.225 37.0891C33.225 39.7803 35.4367 41.965 38.1612 41.965C40.8856 41.965 43.0973 39.7803 43.0973 37.0891C43.0973 34.398 40.8856 32.2133 38.1612 32.2133ZM30.2189 50.3911H34.3382C34.5342 50.3911 34.6926 50.2347 34.6926 50.0411C34.6926 49.8474 34.5342 49.691 34.3382 49.691H30.2189C30.0229 49.691 29.8645 49.8474 29.8645 50.0411C29.8645 50.2347 30.0229 50.3911 30.2189 50.3911ZM20.8315 22.7527L22.5959 31.3026C22.6286 31.4665 22.7743 31.5831 22.9427 31.5831H43.1297C43.3207 31.5831 43.4766 31.4342 43.4841 31.248L43.8209 22.2462C43.8234 22.1518 43.7882 22.06 43.7229 21.9905C43.655 21.9234 43.5645 21.8837 43.469 21.8837H21.2888L20.0924 17.1618C20.0522 17.0079 19.9114 16.8987 19.7506 16.8987H15.7016C15.5056 16.8987 15.3472 17.0551 15.3472 17.2487C15.3472 17.4424 15.5056 17.5988 15.7016 17.5988H19.4741L20.7409 22.5962C20.7559 22.6583 20.7886 22.7129 20.8288 22.7551L20.8315 22.7527Z" fill="#2AA98B"/>
<rect x="13.3889" y="14.8333" width="34.9445" height="29.2778" fill="#2AA98B"/>
<path d="M43.973 29.8728L43.973 29.8728C45.3709 28.3099 45.9973 26.0268 45.2067 24.1109L45.2065 24.1105C44.7526 23.0078 43.5366 21.729 42.4696 21.0755L43.973 29.8728ZM43.973 29.8728C40.8974 33.3121 35.4627 35.4678 30.01 32.4146C31.37 31.6043 32.2687 30.6023 32.8922 29.4955C33.6208 28.202 33.9619 26.7838 34.2495 25.4345L43.973 29.8728ZM37.4497 21.2191C35.8587 22.141 34.6095 23.7473 34.2496 25.4344L37.4497 21.2191ZM37.4497 21.2191C39.0325 20.3019 40.877 20.1004 42.4695 21.0754L37.4497 21.2191Z" fill="#2AA98B" stroke="white"/>
<path d="M51.8646 18.6527L62.1172 6.63074C62.1176 6.63026 62.118 6.62978 62.1184 6.62929C62.7522 5.87233 62.7095 4.75649 62.01 4.05539C62.0099 4.05528 62.0098 4.05518 62.0097 4.05508M51.8646 18.6527L59.1195 3.57256C60.067 2.76343 61.4784 2.81669 62.3635 3.70183L62.0097 4.05508M51.8646 18.6527C51.1382 17.1109 49.6089 15.4473 48.051 14.4949L48.0498 14.4942C47.8543 14.3755 47.6575 14.271 47.4602 14.1779M62.0097 4.05508C61.3091 3.3548 60.1932 3.31311 59.4442 3.95279L59.444 3.95292L47.4602 14.1779M62.0097 4.05508L47.4602 14.1779" fill="#2AA98B" stroke="white"/>
<path d="M48.3627 22.7567L49.1809 21.7974L49.0422 21.0752L49.042 21.074C48.9753 20.722 48.8972 20.4459 48.7963 20.1975C48.6136 19.7668 48.2466 19.2326 47.7769 18.7154C47.3092 18.2002 46.7681 17.7334 46.265 17.4261C45.8702 17.1865 45.479 17.0372 45.1069 16.9732C45.1068 16.9732 45.1067 16.9732 45.1066 16.9732L44.3374 16.8423L43.3599 17.6776C43.6659 17.8114 43.9672 17.9665 44.2615 18.1467L48.3627 22.7567ZM48.3627 22.7567C47.5321 20.7863 45.7109 19.0341 44.2615 18.1468L48.3627 22.7567Z" fill="#2AA98B" stroke="white"/>
</g>
</svg>
