<svg width="44" height="48" viewBox="0 0 44 48" fill="none" xmlns="http://www.w3.org/2000/svg">
<g clip-path="url(#clip0_1820_19159)">
<path d="M29.4333 0.666992H13.5791C12.9484 0.666992 12.3435 0.917544 11.8975 1.36353C11.4515 1.80951 11.201 2.4144 11.201 3.04511C11.2088 3.63387 11.4348 4.19879 11.8352 4.63053C13.4206 7.11963 12.7864 8.59406 12.7864 8.59406H29.9009C29.9009 8.59406 29.354 7.32573 30.5747 5.11408C30.9465 4.91068 31.2572 4.61163 31.4746 4.24787C31.692 3.88412 31.8083 3.46888 31.8114 3.04511C31.8114 2.4144 31.5608 1.80951 31.1148 1.36353C30.6689 0.917544 30.064 0.666992 29.4333 0.666992Z" fill="#2AA98B"/>
<path d="M28.5375 47.3336C37.2573 44.8683 43.599 37.6943 43.599 29.2044C43.599 18.6931 33.8407 10.1794 21.7995 10.1794C9.75829 10.1794 6.10352e-05 18.7169 6.10352e-05 29.2044C6.10352e-05 37.5754 6.1594 44.6622 14.7286 47.2306L28.5375 47.3336Z" fill="#2AA98B"/>
<path d="M30.226 7.80127H12.7864C11.473 7.80127 10.4083 8.86599 10.4083 10.1794C10.4083 11.4928 11.473 12.5575 12.7864 12.5575H30.226C31.5394 12.5575 32.6041 11.4928 32.6041 10.1794C32.6041 8.86599 31.5394 7.80127 30.226 7.80127Z" fill="#2AA98B"/>
<path d="M20.7611 36.7352V34.8802C19.6053 34.8503 18.4706 34.5632 17.4396 34.04L18.0262 31.757C19.0166 32.3062 20.1281 32.6005 21.2605 32.6131C22.3782 32.6131 23.1392 32.185 23.1392 31.4082C23.1392 30.6313 22.513 30.1953 21.0702 29.7039C18.9775 29.0063 17.5506 28.0233 17.5506 26.1367C17.5506 24.4165 18.7635 23.0689 20.8562 22.6567V20.8018H22.7666V22.5219C23.7444 22.5366 24.7083 22.7553 25.5966 23.164L25.0338 25.3678C24.1499 24.9363 23.1795 24.7113 22.1959 24.7098C20.9275 24.7098 20.5153 25.2568 20.5153 25.8037C20.5153 26.3507 21.205 26.858 22.8935 27.4764C25.2161 28.2691 26.1515 29.3709 26.1515 31.1307C26.1515 32.8905 24.9228 34.357 22.6794 34.7534V36.7352H20.7611Z" fill="white"/>
</g>
<defs>
<clipPath id="clip0_1820_19159">
<rect width="43.5989" height="46.6667" fill="white" transform="translate(6.10352e-05 0.666992)"/>
</clipPath>
</defs>
</svg>
