<svg width="64" height="64" viewBox="0 0 64 64" fill="none" xmlns="http://www.w3.org/2000/svg">
<mask id="mask0_1820_19167" style="mask-type:alpha" maskUnits="userSpaceOnUse" x="0" y="0" width="64" height="64">
<rect width="64" height="64" fill="#D9D9D9"/>
</mask>
<g mask="url(#mask0_1820_19167)">
<path d="M48.4943 29.8502V57.8938C48.4943 58.4802 48.9838 58.8728 49.4732 58.8728H56.7111C57.2975 58.8728 57.6901 58.3833 57.6901 57.8938L57.6875 20.4613C57.6875 20.0712 57.198 19.8749 56.9049 20.1681L48.9837 28.7752C48.6905 28.9715 48.4942 29.461 48.4942 29.851L48.4943 29.8502Z" fill="#2AA98B"/>
<path d="M3.60162 53.6162V57.8941C3.60162 58.4804 4.0911 58.873 4.58059 58.873H11.7212C12.3076 58.873 12.7002 58.3835 12.7002 57.8941L12.6976 41.5883C12.6976 41.002 11.915 40.8057 11.6218 41.1983L4.38394 51.3678C3.89446 51.9542 3.60162 52.836 3.60162 53.6162Z" fill="#2AA98B"/>
<path d="M34.801 44.0325C34.7041 44.1294 34.5078 44.2288 34.4109 44.3257C33.9214 44.522 33.6283 45.1083 33.6283 45.6947V57.7968C33.6283 58.3831 34.1178 58.7757 34.6072 58.7757H41.7478C42.3342 58.7757 42.7268 58.2862 42.7268 57.7968L42.7243 36.5015C42.7243 36.1115 42.2348 35.9152 41.9416 36.2084L34.801 44.0325Z" fill="#2AA98B"/>
<path d="M18.5664 38.0677V57.8971C18.5664 58.4834 19.0559 58.876 19.5454 58.876H26.686C27.2724 58.876 27.665 58.3865 27.665 57.8971V42.6643C27.665 41.9785 27.2749 41.3921 26.686 41.099L19.642 37.3819C19.2494 36.9919 18.5664 37.3819 18.5664 38.0677Z" fill="#2AA98B"/>
<path d="M61.6007 6.37825C61.6007 5.59559 60.9149 4.91234 60.0354 5.00919L51.4283 5.39925C50.6456 5.39925 49.9624 6.08505 50.0592 6.96456C50.0592 7.74721 50.745 8.43047 51.6245 8.33361L56.2211 8.13731C56.4174 8.13731 56.5143 8.43049 56.4174 8.52737L33.8247 32.785C33.5316 33.0781 33.1389 33.175 32.8458 32.9813L16.4147 24.1784C15.7289 23.7883 14.9488 23.9821 14.4593 24.6678L0.277315 43.934C-0.21217 44.6198 -0.0158671 45.4993 0.570497 45.9888C0.863679 46.1851 1.15686 46.282 1.45007 46.282C1.93955 46.282 2.32964 46.0856 2.72221 45.6956L15.6322 28.0891C15.9254 27.7959 16.318 27.6991 16.708 27.8928L32.9426 36.5965C33.529 36.8897 34.3117 36.7928 34.8012 36.3033L58.4701 10.6791C58.567 10.4828 58.8601 10.5822 58.8601 10.8754L59.0564 15.1788C59.0564 15.9615 59.7422 16.6448 60.6217 16.5479C61.4044 16.5479 62.0877 15.8621 61.9908 14.9826L61.6007 6.37825Z" fill="#2AA98B"/>
</g>
</svg>
