<svg width="64" height="64" viewBox="0 0 64 64" fill="none" xmlns="http://www.w3.org/2000/svg">
<mask id="mask0_1820_19132" style="mask-type:alpha" maskUnits="userSpaceOnUse" x="0" y="0" width="64" height="64">
<rect width="64" height="64" fill="#D9D9D9"/>
</mask>
<g mask="url(#mask0_1820_19132)">
<path d="M50.1996 40.178C37.2187 44.7404 32.8961 49.3398 28.6073 63.1486C28.2545 64.2838 26.7455 64.2838 26.3927 63.1486C22.104 49.339 17.7806 44.7405 4.80035 40.178C3.73322 39.8026 3.73322 38.1973 4.80035 37.822C17.7813 33.2596 22.1039 28.6602 26.3927 14.8514C26.7455 13.7162 28.2545 13.7162 28.6073 14.8514C32.896 28.661 37.2194 33.2595 50.1996 37.822C51.2668 38.1974 51.2668 39.8027 50.1996 40.178Z" fill="#22876F"/>
<path d="M50.1996 35.0837C37.2187 39.2812 32.8961 43.5126 28.6073 56.2167C28.2545 57.2611 26.7455 57.2611 26.3927 56.2167C22.104 43.5119 17.7806 39.2813 4.80035 35.0837C3.73322 34.7384 3.73322 33.2615 4.80035 32.9163C17.7813 28.7189 22.1039 24.4874 26.3927 11.7833C26.7455 10.7389 28.2545 10.7389 28.6073 11.7833C32.896 24.4881 37.2194 28.7187 50.1996 32.9163C51.2668 33.2616 51.2668 34.7385 50.1996 35.0837Z" fill="#C0E7DA"/>
<path d="M50.1996 37.9424C37.2187 41.5923 32.8961 45.2718 28.6073 56.3189C28.2545 57.2271 26.7455 57.2271 26.3927 56.3189C22.104 45.2712 17.7806 41.5924 4.80035 37.9424C3.73322 37.6421 3.73322 36.3579 4.80035 36.0576C17.7813 32.4077 22.1039 28.7282 26.3927 17.6811C26.7455 16.773 28.2545 16.773 28.6073 17.6811C32.896 28.7288 37.2194 32.4076 50.1996 36.0576C51.2668 36.3579 51.2668 37.6421 50.1996 37.9424Z" fill="#2AA98B"/>
<path d="M59.5998 14.3017C53.1126 16.444 50.9504 18.6064 48.8051 25.0963C48.6302 25.6298 47.8759 25.6298 47.6981 25.0963C45.5558 18.6092 43.3934 16.447 36.9035 14.3017C36.37 14.1268 36.37 13.3725 36.9035 13.1947C43.3906 11.0524 45.5528 8.89 47.6981 2.40007C47.8731 1.86664 48.6273 1.86664 48.8051 2.40007C50.9474 8.88721 53.1098 11.0494 59.5998 13.1947C60.1332 13.3697 60.1332 14.1239 59.5998 14.3017Z" fill="#6AC3AE"/>
</g>
</svg>
