<svg width="42" height="57" viewBox="0 0 42 57" fill="none" xmlns="http://www.w3.org/2000/svg">
<path d="M37.612 13.6111C35.1662 13.3845 32.7624 12.8475 30.4701 12.0137C27.703 11.0099 25.1268 9.58925 22.8065 7.79021C21.4486 6.7366 19.5502 6.7366 18.1922 7.79021C15.8746 9.58705 13.2961 11.0077 10.5286 12.0137C8.23658 12.8475 5.83279 13.3846 3.38678 13.6111C1.4558 13.7901 0 15.3422 0 17.2184V35.1392C0 42.7391 4.34175 49.5727 11.332 52.9736L18.8322 56.6216C19.354 56.8754 19.927 57 20.4977 57C21.0707 57 21.6414 56.8731 22.1655 56.6216L29.6657 52.9736C36.6537 49.5725 40.9977 42.7385 40.9977 35.1392L41 17.2184C41 15.34 39.5442 13.7901 37.6132 13.6111H37.612ZM29.2823 28.4977L19.9652 37.724C19.6158 38.0707 19.136 38.2656 18.6375 38.2656H18.6328C18.1297 38.2656 17.6499 38.0662 17.3028 37.7172L11.7125 32.1161C10.9951 31.3978 11.0137 30.2513 11.7521 29.5534C12.4905 28.8555 13.6715 28.8714 14.3865 29.5919L18.6491 33.8608L26.6293 25.9599C27.3514 25.2438 28.5277 25.2348 29.2638 25.9372C29.9975 26.6396 30.0091 27.7861 29.2871 28.4999L29.2823 28.4977Z" fill="#02474E"/>
<path d="M37.6903 6.85189C35.2472 6.61705 32.846 6.06049 30.5562 5.1963C27.7921 4.15596 25.2187 2.68355 22.901 0.818987C21.5445 -0.272996 19.6483 -0.272996 18.2917 0.818987C15.9766 2.68126 13.401 4.15367 10.6365 5.1963C8.34696 6.06049 5.9458 6.61707 3.50247 6.85189C1.57359 7.03741 0.119385 8.64605 0.119385 10.5905V29.164C0.119385 37.0406 4.45639 44.1231 11.439 47.6478L18.931 51.4287C19.4522 51.6917 20.0246 51.8209 20.5947 51.8209C21.167 51.8209 21.7371 51.6894 22.2606 51.4287L29.7526 47.6478C36.733 44.1229 41.0723 37.04 41.0723 29.164L41.0746 10.5905C41.0746 8.64371 39.6204 7.03741 37.6915 6.85189H37.6903ZM29.3697 22.2806L20.0628 31.8429C19.7137 32.2022 19.2345 32.4042 18.7365 32.4042H18.7318C18.2293 32.4042 17.75 32.1975 17.4033 31.8359L11.8191 26.0308C11.1025 25.2863 11.1211 24.0981 11.8586 23.3748C12.5962 22.6514 13.7759 22.6679 14.4902 23.4147L18.7481 27.839L26.7196 19.6503C27.4409 18.9082 28.6159 18.8989 29.3512 19.6269C30.0841 20.3548 30.0957 21.5431 29.3744 22.2829L29.3697 22.2806Z" fill="#2DAF83" fill-opacity="0.3"/>
<rect x="8.4776" y="15.8806" width="24.2388" height="19.2239" fill="white"/>
<path d="M37.612 12.95C35.1662 12.7461 32.7624 12.2628 30.4701 11.5123C27.703 10.6089 25.1268 9.33033 22.8065 7.71119C21.4486 6.76294 19.5502 6.76294 18.1922 7.71119C15.8746 9.32834 13.2961 10.6069 10.5286 11.5123C8.23658 12.2628 5.83279 12.7461 3.38678 12.95C1.4558 13.1111 0 14.508 0 16.1965V32.3253C0 39.1652 4.34175 45.3154 11.332 48.3762L18.8322 51.6595C19.354 51.8878 19.927 52 20.4977 52C21.0707 52 21.6414 51.8858 22.1655 51.6595L29.6657 48.3762C36.6537 45.3153 40.9977 39.1646 40.9977 32.3253L41 16.1965C41 14.506 39.5442 13.1111 37.6132 12.95H37.612ZM29.2823 26.3479L19.9652 34.6516C19.6158 34.9636 19.136 35.139 18.6375 35.139H18.6328C18.1297 35.139 17.6499 34.9596 17.3028 34.6455L11.7125 29.6045C10.9951 28.958 11.0137 27.9262 11.7521 27.2981C12.4905 26.6699 13.6715 26.6842 14.3865 27.3327L18.6491 31.1747L26.6293 24.0639C27.3514 23.4195 28.5277 23.4113 29.2638 24.0435C29.9975 24.6756 30.0091 25.7075 29.2871 26.3499L29.2823 26.3479Z" fill="#2DAF83"/>
</svg>
